<?xml version="1.0" encoding="UTF-8"?>
<svg id="Layer_1" data-name="Layer 1" xmlns="http://www.w3.org/2000/svg" viewBox="0 0 960 960">
  <defs>
    <style>
      .cls-1 {
        fill: #fefefe;
      }

      .cls-1, .cls-2, .cls-3, .cls-4 {
        stroke-width: 0px;
      }

      .cls-2 {
        fill-rule: evenodd;
      }

      .cls-2, .cls-4 {
        fill: #191919;
      }

      .cls-3 {
        fill: #0a66c2;
      }
    </style>
  </defs>
  <path class="cls-3" d="M219.54,376.94H43.82c-8.41,0-15.23,6.66-15.23,14.86v176.48c0,8.21,6.82,14.88,15.23,14.88h175.73c8.41,0,15.27-6.67,15.27-14.88v-176.48c0-8.2-6.87-14.86-15.27-14.86Z"/>
  <path class="cls-1" d="M74.45,405.32c9.78,0,17.73,7.95,17.73,17.73s-7.95,17.74-17.73,17.74-17.72-7.95-17.72-17.74,7.92-17.73,17.72-17.73ZM108.94,454.25h29.34v13.44h.42c4.08-7.73,14.06-15.9,28.94-15.9,30.95,0,36.67,20.38,36.67,46.88v53.98h-30.55v-47.86c0-11.41-.22-26.09-15.89-26.09s-18.35,12.43-18.35,25.27v48.68h-30.58v-98.41h0ZM59.16,454.25h30.6v98.41h-30.6v-98.41Z"/>
  <polygon class="cls-4" points="355.95 520.33 355.95 528.16 304.58 528.16 304.58 433.12 313.27 433.12 313.27 520.33 355.95 520.33"/>
  <path class="cls-4" d="M930.53,480.33v38.3l-.3.32c-3,3.2-6.94,5.85-11.71,7.87-4.77,2.02-10.34,3.05-16.56,3.05s-11.68-1.17-16.74-3.48c-5.06-2.32-9.43-5.66-12.99-9.95-3.54-4.27-6.34-9.51-8.3-15.59-1.95-6.05-2.95-12.92-2.95-20.41v-.18c.02-7.34,1.04-14.09,3.02-20.04,2.01-6.03,4.9-11.25,8.59-15.52,3.71-4.28,8.22-7.6,13.42-9.86,5.19-2.26,10.98-3.41,17.21-3.41,3.17,0,6.13.35,8.79,1.03,2.66.67,5.08,1.58,7.21,2.69s4.05,2.36,5.69,3.72c1.63,1.34,3.09,2.7,4.34,4.05l.68.74-5.29,5.87-.82-.89c-2.35-2.53-5.2-4.7-8.45-6.47-3.21-1.73-7.3-2.61-12.15-2.61-5.17,0-9.85.96-13.91,2.85-4.05,1.9-7.55,4.61-10.39,8.08-2.85,3.49-5.08,7.79-6.62,12.8-1.56,5.03-2.35,10.8-2.35,17.14s.75,12.14,2.21,17.23c1.46,5.06,3.62,9.41,6.43,12.93,2.79,3.52,6.25,6.28,10.26,8.22,4.01,1.93,8.61,2.91,13.68,2.91,4.08,0,7.95-.6,11.48-1.78,3.3-1.1,6.04-2.66,8.11-4.63v-27.31h-22.11v-7.69h30.52Z"/>
  <path class="cls-4" d="M833.07,433.13v95.03h-8.49l-39.35-66.04-8.92-15.59.41,9.69c.19,4.38.29,8.83.29,13.23v58.71h-8.27v-95.03h8.5l39.33,66.04,8.93,15.6c-.14-3.36-.28-6.71-.42-10.06-.19-4.65-.28-9.22-.28-13.58v-58h8.26Z"/>
  <rect class="cls-4" x="726.33" y="433.13" width="8.69" height="95.03"/>
  <path class="cls-4" d="M693.77,433.13v95.03h-8.49l-39.35-66.04-8.93-15.6c.07,1.6.13,3.19.21,4.77l.21,4.93c.19,4.4.28,8.84.28,13.23v58.71h-8.26v-94.39l.64-.64h7.85l39.35,66.04,8.93,15.6-.08-1.79c-.12-2.76-.23-5.52-.34-8.27-.19-4.68-.29-9.24-.29-13.58v-58h8.27Z"/>
  <path class="cls-4" d="M578.52,484.79c6.77-1.2,12.28-3.84,16.39-7.86,4.47-4.38,6.73-10.5,6.73-18.19,0-4.56-.77-8.5-2.29-11.72-1.52-3.25-3.72-5.95-6.55-8.03-2.78-2.05-6.17-3.57-10.05-4.49-3.85-.91-8.16-1.37-12.79-1.37h-27.59v95.04h8.69v-42.68h17.99l25.07,42.68h10.02l-25.65-43.37ZM551.08,477.92v-37.09h17.21c8.01,0,14.19,1.39,18.34,4.12,4.07,2.68,6.05,7.19,6.05,13.79s-2.05,11.32-6.12,14.42c-4.15,3.17-10.3,4.77-18.27,4.77h-17.21Z"/>
  <path class="cls-2" d="M488.19,433.12h-8.05l-33.59,95.04h8.98l10.84-31.84h35.18l10.84,31.84h9.26l-33.46-95.04ZM498.97,488.63h-29.87l5.42-15.86c1.87-5.46,3.62-10.74,5.3-15.75l.06-.18c1.41-4.25,2.82-8.78,4.16-13.49,1.35,4.67,2.74,9.2,4.16,13.49,1.69,5.07,3.47,10.39,5.35,15.93l5.42,15.86Z"/>
  <polygon class="cls-4" points="433.3 520.33 433.3 528.16 378.98 528.16 378.98 433.13 431.89 433.13 431.89 440.97 387.67 440.97 387.67 473.84 424.85 473.84 424.85 481.69 387.67 481.69 387.67 520.33 433.3 520.33"/>
</svg>